<?xml version="1.0" encoding="UTF-8" standalone="no"?>
<!-- Created with Inkscape (http://www.inkscape.org/) -->

<svg
   width="210mm"
   height="297mm"
   viewBox="0 0 210 297"
   version="1.1"
   id="svg5"
   inkscape:version="1.1.1 (3bf5ae0d25, 2021-09-20)"
   sodipodi:docname="chien.svg"
   xmlns:inkscape="http://www.inkscape.org/namespaces/inkscape"
   xmlns:sodipodi="http://sodipodi.sourceforge.net/DTD/sodipodi-0.dtd"
   xmlns="http://www.w3.org/2000/svg"
   xmlns:svg="http://www.w3.org/2000/svg">
  <sodipodi:namedview
     id="namedview7"
     pagecolor="#ffffff"
     bordercolor="#666666"
     borderopacity="1.0"
     inkscape:pageshadow="2"
     inkscape:pageopacity="0.0"
     inkscape:pagecheckerboard="0"
     inkscape:document-units="mm"
     showgrid="false"
     inkscape:zoom="1.4823793"
     inkscape:cx="508.30444"
     inkscape:cy="631.08003"
     inkscape:window-width="1920"
     inkscape:window-height="1017"
     inkscape:window-x="-8"
     inkscape:window-y="-8"
     inkscape:window-maximized="1"
     inkscape:current-layer="layer1" />
  <defs
     id="defs2">
    <inkscape:path-effect
       effect="bspline"
       id="path-effect20719"
       is_visible="true"
       lpeversion="1"
       weight="33.333333"
       steps="2"
       helper_size="0"
       apply_no_weight="true"
       apply_with_weight="true"
       only_selected="false" />
    <inkscape:path-effect
       effect="bspline"
       id="path-effect20032"
       is_visible="true"
       lpeversion="1"
       weight="33.333333"
       steps="2"
       helper_size="0"
       apply_no_weight="true"
       apply_with_weight="true"
       only_selected="false" />
    <inkscape:path-effect
       effect="bspline"
       id="path-effect20026"
       is_visible="true"
       lpeversion="1"
       weight="33.333333"
       steps="2"
       helper_size="0"
       apply_no_weight="true"
       apply_with_weight="true"
       only_selected="false" />
    <inkscape:path-effect
       effect="bspline"
       id="path-effect20020"
       is_visible="true"
       lpeversion="1"
       weight="33.333333"
       steps="2"
       helper_size="0"
       apply_no_weight="true"
       apply_with_weight="true"
       only_selected="false" />
    <inkscape:path-effect
       effect="bspline"
       id="path-effect19636"
       is_visible="true"
       lpeversion="1"
       weight="33.333333"
       steps="2"
       helper_size="0"
       apply_no_weight="true"
       apply_with_weight="true"
       only_selected="false" />
    <inkscape:path-effect
       effect="bspline"
       id="path-effect18988"
       is_visible="true"
       lpeversion="1"
       weight="33.333333"
       steps="2"
       helper_size="0"
       apply_no_weight="true"
       apply_with_weight="true"
       only_selected="false" />
    <inkscape:path-effect
       effect="bspline"
       id="path-effect18400"
       is_visible="true"
       lpeversion="1"
       weight="33.333333"
       steps="2"
       helper_size="0"
       apply_no_weight="true"
       apply_with_weight="true"
       only_selected="false" />
    <inkscape:path-effect
       effect="bspline"
       id="path-effect18357"
       is_visible="true"
       lpeversion="1"
       weight="33.333333"
       steps="2"
       helper_size="0"
       apply_no_weight="true"
       apply_with_weight="true"
       only_selected="false" />
    <inkscape:path-effect
       effect="bspline"
       id="path-effect18351"
       is_visible="true"
       lpeversion="1"
       weight="33.333333"
       steps="2"
       helper_size="0"
       apply_no_weight="true"
       apply_with_weight="true"
       only_selected="false" />
    <inkscape:path-effect
       effect="bspline"
       id="path-effect18323"
       is_visible="true"
       lpeversion="1"
       weight="33.333333"
       steps="2"
       helper_size="0"
       apply_no_weight="true"
       apply_with_weight="true"
       only_selected="false" />
    <inkscape:path-effect
       effect="bspline"
       id="path-effect16323"
       is_visible="true"
       lpeversion="1"
       weight="33.333333"
       steps="2"
       helper_size="0"
       apply_no_weight="true"
       apply_with_weight="true"
       only_selected="false" />
    <inkscape:path-effect
       effect="bspline"
       id="path-effect16267"
       is_visible="true"
       lpeversion="1"
       weight="33.333333"
       steps="2"
       helper_size="0"
       apply_no_weight="true"
       apply_with_weight="true"
       only_selected="false" />
    <inkscape:path-effect
       effect="bspline"
       id="path-effect16189"
       is_visible="true"
       lpeversion="1"
       weight="33.333333"
       steps="2"
       helper_size="0"
       apply_no_weight="true"
       apply_with_weight="true"
       only_selected="false" />
    <inkscape:path-effect
       effect="bspline"
       id="path-effect13926"
       is_visible="true"
       lpeversion="1"
       weight="33.333333"
       steps="2"
       helper_size="0"
       apply_no_weight="true"
       apply_with_weight="true"
       only_selected="false" />
    <inkscape:path-effect
       effect="bspline"
       id="path-effect13716"
       is_visible="true"
       lpeversion="1"
       weight="33.333333"
       steps="2"
       helper_size="0"
       apply_no_weight="true"
       apply_with_weight="true"
       only_selected="false" />
    <inkscape:path-effect
       effect="bspline"
       id="path-effect13660"
       is_visible="true"
       lpeversion="1"
       weight="33.333333"
       steps="2"
       helper_size="0"
       apply_no_weight="true"
       apply_with_weight="true"
       only_selected="false" />
    <inkscape:path-effect
       effect="bspline"
       id="path-effect13617"
       is_visible="true"
       lpeversion="1"
       weight="33.333333"
       steps="2"
       helper_size="0"
       apply_no_weight="true"
       apply_with_weight="true"
       only_selected="false" />
    <inkscape:path-effect
       effect="bspline"
       id="path-effect11808"
       is_visible="true"
       lpeversion="1"
       weight="33.333333"
       steps="2"
       helper_size="0"
       apply_no_weight="true"
       apply_with_weight="true"
       only_selected="false" />
    <inkscape:path-effect
       effect="bspline"
       id="path-effect11800"
       is_visible="true"
       lpeversion="1"
       weight="33.333333"
       steps="2"
       helper_size="0"
       apply_no_weight="true"
       apply_with_weight="true"
       only_selected="false" />
    <inkscape:path-effect
       effect="bspline"
       id="path-effect11650"
       is_visible="true"
       lpeversion="1"
       weight="33.333333"
       steps="2"
       helper_size="0"
       apply_no_weight="true"
       apply_with_weight="true"
       only_selected="false" />
    <inkscape:path-effect
       effect="bspline"
       id="path-effect11580"
       is_visible="true"
       lpeversion="1"
       weight="33.333333"
       steps="2"
       helper_size="0"
       apply_no_weight="true"
       apply_with_weight="true"
       only_selected="false" />
    <inkscape:path-effect
       effect="bspline"
       id="path-effect3724"
       is_visible="true"
       lpeversion="1"
       weight="33.333333"
       steps="2"
       helper_size="0"
       apply_no_weight="true"
       apply_with_weight="true"
       only_selected="false" />
    <inkscape:path-effect
       effect="bspline"
       id="path-effect3720"
       is_visible="true"
       lpeversion="1"
       weight="33.333333"
       steps="2"
       helper_size="0"
       apply_no_weight="true"
       apply_with_weight="true"
       only_selected="false" />
    <inkscape:path-effect
       effect="bspline"
       id="path-effect3716"
       is_visible="true"
       lpeversion="1"
       weight="33.333333"
       steps="2"
       helper_size="0"
       apply_no_weight="true"
       apply_with_weight="true"
       only_selected="false" />
    <inkscape:path-effect
       effect="bspline"
       id="path-effect3712"
       is_visible="true"
       lpeversion="1"
       weight="33.333333"
       steps="2"
       helper_size="0"
       apply_no_weight="true"
       apply_with_weight="true"
       only_selected="false" />
    <inkscape:path-effect
       effect="bspline"
       id="path-effect3708"
       is_visible="true"
       lpeversion="1"
       weight="33.333333"
       steps="2"
       helper_size="0"
       apply_no_weight="true"
       apply_with_weight="true"
       only_selected="false" />
    <inkscape:path-effect
       effect="bspline"
       id="path-effect3704"
       is_visible="true"
       lpeversion="1"
       weight="33.333333"
       steps="2"
       helper_size="0"
       apply_no_weight="true"
       apply_with_weight="true"
       only_selected="false" />
    <inkscape:path-effect
       effect="bspline"
       id="path-effect3700"
       is_visible="true"
       lpeversion="1"
       weight="33.333333"
       steps="2"
       helper_size="0"
       apply_no_weight="true"
       apply_with_weight="true"
       only_selected="false" />
    <inkscape:path-effect
       effect="bspline"
       id="path-effect3696"
       is_visible="true"
       lpeversion="1"
       weight="33.333333"
       steps="2"
       helper_size="0"
       apply_no_weight="true"
       apply_with_weight="true"
       only_selected="false" />
    <inkscape:path-effect
       effect="bspline"
       id="path-effect3692"
       is_visible="true"
       lpeversion="1"
       weight="33.333333"
       steps="2"
       helper_size="0"
       apply_no_weight="true"
       apply_with_weight="true"
       only_selected="false" />
    <inkscape:path-effect
       effect="bspline"
       id="path-effect3688"
       is_visible="true"
       lpeversion="1"
       weight="33.333333"
       steps="2"
       helper_size="0"
       apply_no_weight="true"
       apply_with_weight="true"
       only_selected="false" />
    <inkscape:path-effect
       effect="bspline"
       id="path-effect3684"
       is_visible="true"
       lpeversion="1"
       weight="33.333333"
       steps="2"
       helper_size="0"
       apply_no_weight="true"
       apply_with_weight="true"
       only_selected="false" />
    <inkscape:path-effect
       effect="bspline"
       id="path-effect3680"
       is_visible="true"
       lpeversion="1"
       weight="33.333333"
       steps="2"
       helper_size="0"
       apply_no_weight="true"
       apply_with_weight="true"
       only_selected="false" />
    <inkscape:path-effect
       effect="bspline"
       id="path-effect2745"
       is_visible="true"
       lpeversion="1"
       weight="33.333333"
       steps="2"
       helper_size="0"
       apply_no_weight="true"
       apply_with_weight="true"
       only_selected="false" />
    <filter
       inkscape:collect="always"
       style="color-interpolation-filters:sRGB"
       id="filter14802"
       x="-0.0081454339"
       y="-0.0086146131"
       width="1.016292"
       height="1.017231">
      <feGaussianBlur
         inkscape:collect="always"
         stdDeviation="0.17135786"
         id="feGaussianBlur14804" />
    </filter>
    <filter
       inkscape:collect="always"
       style="color-interpolation-filters:sRGB"
       id="filter17636"
       x="-0.46379067"
       y="-1.2016395"
       width="1.9275813"
       height="3.4032789">
      <feGaussianBlur
         inkscape:collect="always"
         stdDeviation="3.7282333"
         id="feGaussianBlur17638" />
    </filter>
    <filter
       inkscape:collect="always"
       style="color-interpolation-filters:sRGB"
       id="filter18327"
       x="-0.012328351"
       y="-0.013039376"
       width="1.0246579"
       height="1.0260805">
      <feGaussianBlur
         inkscape:collect="always"
         stdDeviation="0.3574293"
         id="feGaussianBlur18325" />
    </filter>
  </defs>
  <g
     inkscape:label="Calque 1"
     inkscape:groupmode="layer"
     id="layer1">
    <path
       style="opacity:1;fill:#e3dedb;stroke:none;stroke-width:0.611055;stroke-linecap:butt;stroke-linejoin:miter;stroke-opacity:1"
       d="m 76.268573,111.11502 c -1.600411,0.045 -4.801393,0.13508 -7.110816,0.19828 -2.309423,0.0632 -3.727232,0.0996 -5.326898,0.46309 -1.599666,0.36354 -3.381017,1.05427 -4.708013,1.78139 -1.326995,0.72711 -2.199495,1.49055 -2.890264,2.34493 -0.690769,0.85439 -1.199723,1.79959 -1.526329,3.06397 -0.326605,1.26437 -0.470858,2.84776 -0.54109,6.33411 -0.07023,3.48635 -0.06645,8.87541 0.02387,12.40995 0.09032,3.53455 0.267146,5.21438 0.882803,6.36331 0.615657,1.14892 1.669926,1.76694 3.015059,2.09408 1.345132,0.32714 2.981067,0.3635 4.382548,0.0571 1.401481,-0.3064 2.568539,-0.95549 3.45927,-0.80995 0.890732,0.14554 1.505025,1.08546 2.230245,2.59157 0.725221,1.5061 1.561367,3.57829 2.92474,5.39602 1.363372,1.81773 3.253782,3.38096 5.435107,4.81696 2.181324,1.43601 4.653404,2.74476 6.28938,3.58092 1.635976,0.83616 2.435764,1.1997 2.944671,1.67237 0.508908,0.47266 0.727034,1.05433 0.908784,2.01774 0.18175,0.96342 0.327165,2.30851 0.127188,4.63523 -0.199977,2.32672 -0.745288,5.63494 -1.054296,8.77968 -0.309008,3.14474 -0.381715,6.12577 -0.472607,8.39795 -0.09089,2.27219 -0.199955,3.83543 -0.363563,5.01694 -0.163608,1.18152 -0.381731,1.98131 -0.727103,2.72655 -0.345372,0.74525 -0.817978,1.43597 -1.308776,2.19944 -0.490798,0.76346 -0.999759,1.59961 -1.199675,2.29043 -0.199916,0.69081 -0.09085,1.23613 0.109175,1.59964 0.200029,0.36352 0.490864,0.54529 2.672179,0.5634 2.181314,0.0181 6.252973,-0.1273 9.015969,-0.0727 2.762996,0.0546 4.217158,0.30903 7.380072,0.54532 3.16291,0.2363 8.03436,0.45442 10.96682,0.75961 2.93246,0.3052 3.92575,0.69737 5.7435,0.75186 1.81774,0.0545 4.45984,-0.22863 7.59709,-0.40189 3.13725,-0.17327 6.76942,-0.2367 8.6825,-0.45479 1.91308,-0.2181 2.10718,-0.59093 2.27695,-0.88188 0.16976,-0.29096 0.31518,-0.5 0.70154,-0.63635 0.38637,-0.13636 1.01347,-0.19997 2.05413,-0.37721 1.04066,-0.17724 2.49483,-0.46807 3.88083,-1.07702 1.38599,-0.60896 2.70382,-1.53598 3.90353,-2.52211 1.1997,-0.98612 2.28124,-2.03131 3.32189,-3.51275 1.04065,-1.48145 2.04038,-3.39912 2.65842,-5.18958 0.61804,-1.79046 0.85434,-3.45365 0.93161,-5.00327 0.0773,-1.54963 -0.005,-2.98561 -0.27712,-3.96265 -0.27259,-0.97704 -0.73611,-1.49509 -1.50864,-1.86326 -0.77253,-0.36816 -1.85406,-0.58628 -3.17653,-0.4318 -1.32248,0.15448 -2.8857,0.68161 -3.9446,1.54056 -1.0589,0.85894 -1.6133,2.04954 -2.29497,3.54465 -0.68166,1.49511 -1.49054,3.29465 -2.22671,4.5125 -0.73618,1.21785 -1.39964,1.85405 -1.92217,1.93593 -0.52254,0.0819 -0.90426,-0.39072 -1.66774,-1.71314 -0.76349,-1.32242 -1.90864,-3.49457 -2.89931,-5.29415 -0.99068,-1.79958 -1.82683,-3.22649 -2.79022,-4.50347 -0.96338,-1.27699 -2.05401,-2.40397 -3.20829,-3.72184 -1.15429,-1.31787 -2.37215,-2.82656 -3.09927,-3.78542 -0.72711,-0.95885 -0.96342,-1.36784 -0.92258,-2.35856 0.0408,-0.99072 0.35893,-2.56303 1.08608,-3.63558 0.72715,-1.07255 1.86323,-1.64513 3.0584,-2.21318 1.19518,-0.56804 2.4494,-1.13154 3.83996,-2.12675 1.39055,-0.99522 2.91743,-2.42212 4.08987,-3.68998 1.17244,-1.26787 1.99041,-2.37667 2.76295,-3.65818 0.77254,-1.2815 1.49962,-2.73566 2.04495,-3.9899 0.54532,-1.25424 0.90886,-2.3085 1.18155,-2.91296 0.27269,-0.60446 0.45446,-0.75896 0.7181,-0.60889 0.26364,0.15007 0.609,0.60449 1.18162,1.07707 0.57263,0.47259 1.37241,0.96336 2.43579,1.21779 1.06337,0.25442 2.3903,0.27259 3.4173,0.16804 1.027,-0.10454 1.75409,-0.33176 2.46073,-0.57034 0.70665,-0.23858 1.39284,-0.48851 2.11309,-0.92931 0.72024,-0.4408 1.47459,-1.07245 2.08807,-1.71546 0.61347,-0.64301 1.08608,-1.29738 1.58369,-2.03584 0.49761,-0.73847 1.0202,-1.56098 1.4201,-2.45392 0.3999,-0.89294 0.6771,-1.85633 0.9384,-2.90608 0.26131,-1.04975 0.5067,-2.18581 0.63394,-3.14239 0.12724,-0.95657 0.13631,-1.73364 0.16357,-3.4378 0.0272,-1.70416 0.0727,-4.33529 -0.005,-6.17121 -0.0772,-1.83591 -0.27718,-2.87654 -0.42488,-3.66727 -0.14769,-0.79073 -0.24312,-1.33149 -0.49759,-2.15629 -0.25447,-0.8248 -0.668,-1.93362 -1.03607,-2.78796 -0.36808,-0.85434 -0.69073,-1.45419 -1.22921,-2.07452 -0.53847,-0.62033 -1.29282,-1.26107 -2.27213,-1.76554 -0.97931,-0.50447 -2.18354,-0.87256 -3.30602,-1.06345 -1.12248,-0.19089 -2.16312,-0.20452 -3.49918,-0.19998 -1.33605,0.005 -2.96744,0.0273 -4.76704,0.18179 -1.7996,0.15451 -3.76727,0.4408 -5.12379,0.73618 -1.35652,0.29538 -2.10178,0.59985 -2.92656,0.8407 -0.82479,0.24086 -1.72912,0.41809 -2.3494,0.35455 -0.62028,-0.0635 -0.95656,-0.368 -1.65412,-0.87472 -0.69756,-0.50672 -1.75637,-1.21563 -3.9695,-2.34948 -2.21313,-1.13384 -5.58043,-2.69252 -7.79808,-3.6355 -2.21766,-0.94297 -3.28556,-1.27016 -5.94406,-1.63146 -2.6585,-0.3613 -6.90738,-0.75665 -10.12442,-0.86437 -3.21703,-0.10772 -5.402033,0.0722 -7.57464,0.3745 -2.172606,0.30227 -4.332509,0.72684 -6.377876,1.42531 -2.045368,0.69846 -3.976075,1.67082 -5.450419,2.51147 -1.474345,0.84065 -2.492262,1.54956 -3.382958,2.14487 -0.890697,0.59531 -1.654132,1.077 -2.175823,1.35463 -0.52169,0.27762 -0.80168,0.35116 -0.941733,0.38795 -0.140054,0.0368 -0.139997,0.0368 -1.740408,0.0818 z"
       id="path2743"
       sodipodi:nodetypes="ccccccccccccccccccccccccccccccccccccccccccccccccccccccccccccccccccccccccccccccccccccccccccccccccc"
       inkscape:original-d="m 77.868984,111.07 c -3.200818,0.0902 -6.401799,0.18026 -9.60294,0.27015 -1.417706,0.0365 -2.835514,0.0729 -4.253515,0.10906 -1.78126,0.69092 -3.562611,1.38165 -5.34416,2.07223 -0.872371,0.76362 -1.744869,1.52706 -2.617546,2.29035 -0.508817,0.94541 -1.017774,1.89061 -1.526903,2.83568 -0.144097,1.5836 -0.288351,3.16699 -0.432768,4.75024 0.0039,5.38943 0.0077,10.77849 0.01134,16.16749 0.176998,1.68007 0.353826,3.35991 0.530498,5.03962 1.054472,0.6182 2.108741,1.23622 3.162869,1.85409 1.636162,0.0365 3.272096,0.0729 4.907902,0.10907 1.167265,-0.64896 2.334323,-1.29805 3.50124,-1.94731 0.614481,0.94012 1.228775,1.88004 1.842918,2.81982 0.83634,2.07243 1.672484,4.14462 2.508484,6.21668 1.89065,1.56345 3.781063,3.12667 5.671352,4.68977 2.47234,1.30896 4.944419,2.61771 7.416385,3.92632 0.799984,0.36372 1.599773,0.72726 2.399417,1.09065 0.218296,0.58184 0.436421,1.16351 0.654388,1.74503 0.145583,1.34532 0.291,2.69041 0.436258,4.03538 -0.545172,3.30852 -1.090484,6.61674 -1.635967,9.92487 -0.07255,2.98132 -0.145258,5.96235 -0.218128,8.94329 -0.108906,1.56344 -0.217969,3.12668 -0.327195,4.68977 -0.217972,0.79998 -0.436095,1.59977 -0.654385,2.39942 -0.472462,0.69091 -0.945065,1.38164 -1.41784,2.07222 -0.508815,0.83634 -1.017773,1.67249 -1.526903,2.50848 0.109229,0.5455 0.218292,1.09081 0.327194,1.63598 0.291005,0.18193 0.581839,0.3637 0.872516,0.54531 4.071984,-0.14526 8.143643,-0.29067 12.215221,-0.43625 1.454385,0.25465 2.908547,0.50913 4.362579,0.76345 4.871805,0.21829 9.743255,0.43642 14.614645,0.65438 0.9935,0.39236 1.9868,0.78452 2.97996,1.17655 2.64238,-0.28296 5.28448,-0.56607 7.92648,-0.84935 3.63248,-0.0633 7.26465,-0.12669 10.89674,-0.19028 0.19427,-0.37267 0.38836,-0.7455 0.58231,-1.1185 0.14558,-0.20888 0.291,-0.41792 0.43625,-0.62712 0.6273,-0.0635 1.25441,-0.12708 1.88137,-0.19086 1.45438,-0.29068 2.90855,-0.58152 4.36257,-0.87251 1.31806,-0.92691 2.63589,-1.85394 3.95359,-2.78115 1.08174,-1.04506 2.16328,-2.09024 3.24467,-3.1356 0.99994,-1.9176 1.99968,-3.83527 2.99927,-5.75315 0.23648,-1.66311 0.47278,-3.3263 0.70892,-4.98971 -0.0816,-1.43588 -0.16343,-2.87186 -0.24539,-4.30804 -0.46337,-0.5179 -0.92689,-1.03595 -1.39057,-1.55417 -1.08142,-0.21797 -2.16295,-0.43609 -3.24467,-0.65439 -1.56313,0.52732 -3.12635,1.05446 -4.68977,1.58144 -0.55427,1.1908 -1.10867,2.3814 -1.66323,3.57186 -0.80875,1.79976 -1.61764,3.59929 -2.42669,5.39869 -0.66333,0.63638 -1.32679,1.27258 -1.99043,1.90863 -0.38157,-0.47246 -0.76329,-0.94506 -1.14518,-1.41784 -1.14503,-2.17208 -2.2902,-4.34423 -3.43553,-6.5166 -0.83602,-1.42679 -1.67217,-2.8537 -2.50849,-4.28078 -1.0905,-1.12686 -2.18113,-2.25384 -3.27193,-3.381 -1.21775,-1.50859 -2.43561,-3.01729 -3.65367,-4.52618 -0.23614,-0.40883 -0.47244,-0.81782 -0.70891,-1.22697 0.31827,-1.57222 0.63637,-3.14453 0.95431,-4.71704 1.13627,-0.57244 2.27234,-1.14502 3.40827,-1.71776 1.25442,-0.56335 2.50864,-1.12684 3.76272,-1.69051 1.5271,-1.42679 3.05397,-2.85369 4.58072,-4.28078 0.81816,-1.10868 1.63613,-2.21748 2.45395,-3.32646 0.72728,-1.45406 1.45435,-2.90823 2.18129,-4.36258 0.36371,-1.05415 0.72726,-2.10841 1.09064,-3.16287 0.18195,-0.15435 0.36372,-0.30885 0.54533,-0.46352 0.34554,0.45461 0.6909,0.90903 1.03611,1.3633 0.79999,0.49096 1.59977,0.98174 2.39942,1.47237 1.32713,0.0183 2.65406,0.0365 3.98085,0.0545 0.72727,-0.22705 1.45436,-0.45427 2.18129,-0.68165 0.68637,-0.24978 1.37256,-0.49972 2.05859,-0.74982 0.75454,-0.63151 1.50889,-1.26316 2.26309,-1.89499 0.47279,-0.65424 0.94539,-1.30861 1.41784,-1.96316 0.52277,-0.82239 1.04536,-1.6449 1.5678,-2.46758 0.27737,-0.96326 0.55457,-1.92665 0.83161,-2.89021 0.24557,-1.13596 0.49096,-2.27202 0.73619,-3.40827 0.009,-0.77694 0.0183,-1.55401 0.0272,-2.33126 0.0456,-2.63107 0.0911,-5.2622 0.13634,-7.89354 -0.1998,-1.04051 -0.39974,-2.08115 -0.59986,-3.12197 -0.0953,-0.54063 -0.1907,-1.08139 -0.2863,-1.62233 -0.41337,-1.10868 -0.82691,-2.21749 -1.2406,-3.32647 -0.3225,-0.5997 -0.64514,-1.19955 -0.96795,-1.79956 -0.75421,-0.64061 -1.50856,-1.28135 -2.26308,-1.92226 -1.20412,-0.36794 -2.40835,-0.73603 -3.61277,-1.10428 -1.04051,-0.0135 -2.08115,-0.0271 -3.12197,-0.0409 -1.63129,0.0229 -3.26268,0.0456 -4.89427,0.0682 -1.96758,0.28646 -3.93525,0.57275 -5.90311,0.85888 -0.74513,0.30464 -1.49039,0.60911 -2.23582,0.91342 -0.90418,0.17739 -1.80851,0.35462 -2.71299,0.53169 -0.33613,-0.30432 -0.6724,-0.60879 -1.00885,-0.91342 -1.05869,-0.70877 -2.11751,-1.41768 -3.1765,-2.12676 -3.36727,-1.55858 -6.73457,-3.11726 -10.1021,-4.67614 -1.06778,-0.32703 -2.13568,-0.65422 -3.20377,-0.98158 -4.24889,-0.3952 -8.49777,-0.79055 -12.74691,-1.18607 -2.18491,0.18011 -4.369909,0.36005 -6.555216,0.53984 -2.159884,0.42476 -4.319787,0.84933 -6.479922,1.27376 -1.930541,0.97251 -3.861247,1.94487 -5.792112,2.91707 -1.017794,0.70909 -2.035709,1.418 -3.053807,2.12676 -0.763304,0.48187 -1.52674,0.96356 -2.290353,1.4451 -0.279838,0.0737 -0.559827,0.14725 -0.839983,0.22064 z"
       inkscape:path-effect="#path-effect2745" />
    <path
       id="path2743-2"
       style="fill:#ececec;stroke:none;stroke-width:0.611055;stroke-linecap:butt;stroke-linejoin:miter;stroke-opacity:1"
       d="m 101.33924,102.96264 c -2.073568,0.0193 -3.709928,0.17717 -5.339384,0.40387 -2.172605,0.30227 -4.332582,0.72693 -6.377947,1.4254 -1.206535,0.41201 -2.370439,0.91964 -3.427071,1.43897 a 50.822232,30.693851 0 0 1 6.746451,-0.28641 50.822232,30.693851 0 0 1 20.192631,2.52807 c 1.21489,0.22326 2.11374,0.492 3.2234,0.92679 a 50.822232,30.693851 0 0 1 15.21102,7.29621 c 0.51816,-0.0498 1.10647,-0.17684 1.66442,-0.33977 0.82479,-0.24086 1.57005,-0.54552 2.92658,-0.8409 1.35652,-0.29538 3.3241,-0.58156 5.12371,-0.73606 1.79959,-0.15451 3.43114,-0.17734 4.76719,-0.18189 1.33607,-0.004 2.3766,0.009 3.49907,0.2002 1.12247,0.19089 2.32681,0.55873 3.30612,1.0632 0.97931,0.50447 1.7335,1.14546 2.27197,1.7658 0.53849,0.62033 0.86122,1.21995 1.22931,2.0743 0.36807,0.85434 0.78157,1.96314 1.03605,2.78794 0.25446,0.82481 0.34996,1.36568 0.49765,2.15641 0.14769,0.79072 0.34747,1.83145 0.4247,3.66737 0.0772,1.83591 0.0315,4.46696 0.004,6.17112 -0.0272,1.70415 -0.0363,2.48123 -0.16356,3.4378 -0.12726,0.95657 -0.37244,2.09249 -0.63375,3.14224 -0.10527,0.42294 -0.21604,0.82831 -0.33346,1.22425 0.0519,-0.0759 0.10399,-0.14909 0.15631,-0.22672 0.49762,-0.73846 1.02012,-1.56093 1.42003,-2.45387 0.39989,-0.89294 0.67717,-1.85629 0.93847,-2.90604 0.26131,-1.04975 0.50652,-2.18598 0.63374,-3.14256 0.12726,-0.95657 0.1363,-1.73364 0.16357,-3.4378 0.0273,-1.70416 0.073,-4.33521 -0.004,-6.17112 -0.0772,-1.83592 -0.27733,-2.87665 -0.42502,-3.66737 -0.14769,-0.79072 -0.24287,-1.33128 -0.49733,-2.15609 -0.25448,-0.8248 -0.66798,-1.9336 -1.03606,-2.78794 -0.36807,-0.85435 -0.69082,-1.45429 -1.2293,-2.07462 -0.53847,-0.62034 -1.29297,-1.26101 -2.27229,-1.76548 -0.97932,-0.50447 -2.18332,-0.87262 -3.3058,-1.06352 -1.12247,-0.19089 -2.16332,-0.20442 -3.49939,-0.19988 -1.33603,0.005 -2.96728,0.0271 -4.76687,0.18157 -1.79961,0.1545 -3.76719,0.441 -5.1237,0.73638 -1.35654,0.29538 -2.10179,0.59973 -2.92658,0.84058 -0.82479,0.24086 -1.72938,0.41815 -2.34966,0.35461 -0.62028,-0.0635 -0.95643,-0.36797 -1.65402,-0.87468 -0.69756,-0.50672 -1.75643,-1.21581 -3.96955,-2.34966 -2.21313,-1.13385 -5.58032,-2.6925 -7.79797,-3.63547 -2.21766,-0.94298 -3.28557,-1.26998 -5.94408,-1.63128 -2.6585,-0.3613 -6.90754,-0.75686 -10.12458,-0.86458 -0.80427,-0.0269 -1.54385,-0.0358 -2.23502,-0.0294 z m -39.704149,9.50851 c -1.023901,0.35409 -2.025106,0.79189 -2.850468,1.24414 -0.786351,0.43087 -1.410502,0.87523 -1.934416,1.34297 a 50.822232,30.693851 0 0 1 4.784884,-2.58711 z m 78.063089,36.68727 c -0.17512,0.008 -0.32849,0.20851 -0.53301,0.66185 -0.23501,0.52094 -0.54534,1.38677 -0.97352,2.41597 0.58615,-0.98412 1.14034,-2.0549 1.60853,-3.06109 -0.0349,-0.0115 -0.069,-0.0183 -0.102,-0.0167 z m -57.5209,48.79772 c -0.367159,0.59964 -0.700009,1.21138 -0.852584,1.73864 -0.07114,0.24578 -0.101806,0.47222 -0.104519,0.67953 0.156173,-0.2659 0.304516,-0.53246 0.431659,-0.80679 0.22295,-0.48107 0.388977,-0.99684 0.525444,-1.61138 z" />
    <path
       style="fill:none;stroke:#000000;stroke-width:0.75;stroke-linecap:butt;stroke-linejoin:miter;stroke-opacity:1"
       d="m 73.384551,116.23676 c -1.491023,2.72497 -2.982015,5.44989 -4.344484,9.0232 -1.362469,3.57331 -2.596367,7.99478 -3.077188,11.47142 -0.480822,3.47664 -0.208601,6.00818 -0.0725,7.26938 0.136104,1.26121 0.136104,1.25221 0.136104,1.24301"
       id="path3678"
       inkscape:path-effect="#path-effect3680"
       inkscape:original-d="m 73.384551,116.23676 c -1.49083,2.72508 -2.98182,5.45 -4.472974,8.17475 -1.233787,4.42181 -2.467685,8.84328 -3.701771,13.26468 0.272393,2.53181 0.544614,5.06335 0.816679,7.59478 1.61e-4,-0.009 1.61e-4,-0.018 0,-0.0272" />
    <path
       style="fill:none;stroke:#000000;stroke-width:0.75;stroke-linecap:butt;stroke-linejoin:miter;stroke-opacity:1"
       d="m 132.64001,126.74997 c 1.13118,2.87935 2.26228,5.75851 3.45767,8.3035 1.19539,2.54499 2.455,4.75573 3.51705,6.29009 1.06204,1.53437 1.92641,2.39231 2.79064,3.25011"
       id="path3682"
       inkscape:path-effect="#path-effect3684"
       inkscape:original-d="m 132.64001,126.74997 c 1.13126,2.87932 2.26236,5.75848 3.3933,8.63747 1.25981,2.21099 2.51942,4.42173 3.77889,6.63235 0.86457,0.85814 1.72894,1.71608 2.59317,2.57388" />
    <path
       style="fill:#000000;stroke:#000000;stroke-width:0.161675px;stroke-linecap:butt;stroke-linejoin:miter;stroke-opacity:1"
       d="m 96.095286,137.90981 c -1.18254,0.15422 -2.776361,0.53982 -3.650464,0.96405 -0.874102,0.42423 -1.028342,0.88695 -0.771182,1.55537 0.257159,0.66843 0.92552,1.54244 1.523294,2.1727 0.597774,0.63026 1.124883,1.01678 1.986066,1.23522 0.861183,0.21844 2.056389,0.26893 2.821009,0.0757 0.764621,-0.19326 1.098804,-0.63027 1.57438,-1.3372 0.475571,-0.70694 1.092531,-1.68378 1.323931,-2.41635 0.2314,-0.73257 0.0772,-1.22098 -0.33408,-1.55524 -0.41125,-0.33427 -1.079618,-0.51421 -1.799424,-0.64276 -0.719806,-0.12855 -1.49099,-0.20567 -2.67353,-0.0515 z"
       id="path3686"
       inkscape:path-effect="#path-effect3688"
       inkscape:original-d="m 96.506448,137.67846 c -1.593656,0.38576 -3.187475,0.77137 -4.781454,1.1568 -0.154082,0.46289 -0.30832,0.92561 -0.462721,1.38817 0.668549,0.87421 1.336912,1.74822 2.005126,2.62209 0.527292,0.38669 1.0544,0.77321 1.581357,1.15958 1.195418,0.0507 2.390627,0.10113 3.585698,0.15146 0.334356,-0.43686 0.668537,-0.87387 1.002562,-1.31104 0.617134,-0.97672 1.234084,-1.95356 1.850884,-2.93057 -0.15408,-0.48828 -0.30832,-0.97669 -0.46272,-1.46529 -0.66822,-0.17979 -1.336588,-0.35973 -2.005125,-0.53984 -0.771055,-0.077 -1.542243,-0.15408 -2.313607,-0.23136 z" />
    <path
       style="fill:none;stroke:#000000;stroke-width:0.458291;stroke-linecap:butt;stroke-linejoin:miter;stroke-opacity:1"
       d="m 85.015534,147.31849 c 0.64284,0.5657 1.285511,1.13125 1.863925,1.47181 0.578415,0.34055 1.09254,0.45623 1.902297,0.48834 0.809756,0.0321 1.915121,-0.0193 3.194034,-0.17355 1.278913,-0.15425 2.731315,-0.41131 3.830303,-0.52698 1.098989,-0.11567 1.844473,-0.09 2.823459,0.17514 0.978987,0.26511 2.191388,0.76954 3.091098,0.96871 0.89971,0.19917 1.48675,0.0932 2.07588,-0.0819 0.58913,-0.1751 1.18037,-0.41931 1.64305,-0.72135 0.46268,-0.30203 0.79685,-0.66192 1.13105,-1.02182"
       id="path3690"
       inkscape:path-effect="#path-effect3692"
       inkscape:original-d="m 85.015534,147.31849 c 0.642829,0.56571 1.285498,1.13126 1.928006,1.69664 0.514306,0.11585 1.02843,0.23153 1.542405,0.34704 1.105573,-0.0513 2.21094,-0.10266 3.316169,-0.15423 1.452622,-0.25691 2.905023,-0.51398 4.357293,-0.77121 0.745672,0.0258 1.491152,0.0516 2.236486,0.0771 1.212612,0.50461 2.425017,1.00904 3.637277,1.51331 0.58722,-0.10582 1.17426,-0.21181 1.76114,-0.31795 0.59143,-0.24405 1.18267,-0.48826 1.77376,-0.73264 0.33435,-0.35974 0.66853,-0.71962 1.00256,-1.07968" />
    <path
       style="fill:none;stroke:#000000;stroke-width:0.161675px;stroke-linecap:butt;stroke-linejoin:miter;stroke-opacity:1"
       d="m 89.874108,149.28505 c 0.205675,1.7611 0.411329,3.52201 0.732714,4.7688 0.321385,1.24679 0.758391,1.97942 1.375147,2.596 0.616755,0.61658 1.413154,1.11716 2.659917,1.20706 1.246762,0.0899 2.943873,-0.23073 4.055893,-0.58386 1.112021,-0.35312 1.639001,-0.73871 2.120971,-1.40063 0.48198,-0.66191 0.91898,-1.60019 1.24119,-2.62044 0.32221,-1.02025 0.5296,-2.12245 0.62728,-2.71303 0.0977,-0.59057 0.0856,-0.6695 0.0735,-0.74862"
       id="path3694"
       inkscape:path-effect="#path-effect3696"
       inkscape:original-d="m 89.874108,149.28505 c 0.205816,1.76108 0.411469,3.52199 0.616962,5.28274 0.437184,0.73282 0.87419,1.46545 1.311044,2.19793 0.796587,0.50075 1.59298,1.00134 2.389227,1.50176 1.697341,-0.32049 3.394453,-0.64112 5.091435,-0.96192 0.52716,-0.38544 1.054134,-0.77104 1.580964,-1.1568 0.43719,-0.93816 0.87419,-1.87644 1.31104,-2.8149 0.20756,-1.10209 0.41494,-2.2043 0.62217,-3.3067 -0.0119,-0.0788 -0.024,-0.15773 -0.0362,-0.23683" />
    <path
       style="fill:none;stroke:#000000;stroke-width:0.161675px;stroke-linecap:butt;stroke-linejoin:miter;stroke-opacity:1"
       d="m 95.828351,148.51564 c -0.21815,1.18165 -0.436281,2.36319 -0.463519,3.42205 -0.02724,1.05887 0.136357,1.99499 0.299922,2.93095"
       id="path3698"
       inkscape:path-effect="#path-effect3700"
       inkscape:original-d="m 95.828351,148.51564 c -0.217966,1.18168 -0.436095,2.36322 -0.654387,3.54459 0.163762,0.93631 0.327356,1.87243 0.49079,2.80841" />
    <path
       style="fill:none;stroke:#000000;stroke-width:0.75;stroke-linecap:butt;stroke-linejoin:miter;stroke-opacity:1"
       d="m 97.894613,180.1717 c -0.616984,3.85615 -1.233945,7.71216 -1.670965,10.20572 -0.43702,2.49356 -0.694081,3.62463 -0.951152,4.40865 -0.257071,0.78403 -0.514136,1.22104 -0.861156,1.60661 -0.347019,0.38557 -0.784025,0.71975 -1.19536,1.15679 -0.411335,0.43705 -0.796927,0.97688 -1.118268,1.5296 -0.321342,0.55272 -0.578405,1.11826 -0.784058,1.52956 -0.205652,0.4113 -0.359894,0.66836 -0.514104,0.92538"
       id="path3702"
       inkscape:path-effect="#path-effect3704"
       inkscape:original-d="m 97.894613,180.1717 c -0.616802,3.85618 -1.233763,7.71219 -1.850885,11.56804 -0.256912,1.13128 -0.513975,2.26235 -0.771203,3.39329 -0.256911,0.43718 -0.513974,0.87419 -0.771203,1.31104 -0.436861,0.33436 -0.873867,0.66854 -1.311044,1.00256 -0.385447,0.54002 -0.771041,1.07985 -1.156803,1.61953 -0.256912,0.56572 -0.513973,1.13126 -0.771203,1.69665 -0.154081,0.25723 -0.308318,0.5143 -0.462722,0.7712" />
    <path
       style="fill:none;stroke:#000000;stroke-width:0.75;stroke-linecap:butt;stroke-linejoin:miter;stroke-opacity:1"
       d="m 91.185151,180.1717 c 0.822742,1.23411 1.645354,2.46804 2.528148,3.48229 0.882794,1.01426 1.825679,1.80885 2.397282,2.28251 0.571603,0.47366 0.771894,0.62638 0.972012,0.77897"
       id="path3706"
       inkscape:path-effect="#path-effect3708"
       inkscape:original-d="m 91.185151,180.1717 c 0.822779,1.23409 1.645393,2.46801 2.467848,3.70178 0.943084,0.79478 1.885969,1.58937 2.82871,2.38382 0.200461,0.15288 0.400752,0.3056 0.600884,0.45817" />
    <path
       style="fill:none;stroke:#000000;stroke-width:0.75;stroke-linecap:butt;stroke-linejoin:miter;stroke-opacity:1"
       d="m 114.70682,182.33107 c -1.36248,6.90239 -2.72494,13.80465 -4.08737,20.70678"
       id="path3710"
       inkscape:path-effect="#path-effect3712"
       inkscape:original-d="m 114.70682,182.33107 c -1.3623,6.90243 -2.72475,13.80469 -4.08737,20.70678" />
    <path
       style="fill:none;stroke:#000000;stroke-width:0.75;stroke-linecap:butt;stroke-linejoin:miter;stroke-opacity:1"
       d="m 125.31085,183.79635 c -0.51394,-0.34691 -1.02808,-0.69396 -1.57438,-0.82256 -0.5463,-0.12861 -1.1247,-0.0386 -1.79953,0.13488 -0.67483,0.17352 -1.44601,0.43058 -2.34579,0.90617 -0.89978,0.47559 -1.92802,1.16965 -2.73138,1.83162 -0.80337,0.66198 -1.38176,1.29178 -1.94088,1.85733 -0.55912,0.56554 -1.09895,1.06682 -1.6388,1.5681"
       id="path3714"
       inkscape:path-effect="#path-effect3716"
       inkscape:original-d="m 125.31085,183.79635 c -0.51397,-0.34687 -1.02811,-0.69392 -1.5424,-1.04112 -0.57826,0.0901 -1.15665,0.18012 -1.73521,0.26992 -0.77106,0.25724 -1.54224,0.5143 -2.31361,0.7712 -1.02813,0.69427 -2.05637,1.38833 -3.08481,2.08225 -0.57825,0.62999 -1.15664,1.2598 -1.7352,1.88945 -0.53969,0.50145 -1.07953,1.00272 -1.61953,1.50384" />
    <path
       style="fill:none;stroke:#000000;stroke-width:0.75;stroke-linecap:butt;stroke-linejoin:miter;stroke-opacity:1"
       d="m 121.64764,197.0996 c -0.96381,-0.48833 -1.92782,-0.97676 -2.83404,-1.07323 -0.90622,-0.0965 -1.75453,0.19917 -2.68641,0.55907 -0.93188,0.35989 -1.94728,0.78405 -2.69926,1.37534 -0.75198,0.5913 -1.2404,1.34964 -1.61315,1.99232 -0.37275,0.64269 -0.62981,1.16967 -0.88685,1.69659"
       id="path3718"
       inkscape:path-effect="#path-effect3720"
       inkscape:original-d="m 121.64764,197.0996 c -0.96384,-0.48827 -1.92785,-0.9767 -2.89201,-1.46529 -0.84818,0.2958 -1.69649,0.59142 -2.54497,0.88689 -1.01527,0.42433 -2.03067,0.84848 -3.04625,1.27248 -0.48827,0.75852 -0.97669,1.51686 -1.46528,2.27505 -0.25691,0.52715 -0.51397,1.05413 -0.7712,1.58096" />
    <path
       style="opacity:1;fill:#d35f5f;stroke:#000000;stroke-width:0.206106;stroke-opacity:1"
       d="m 94.437779,157.72706 c -0.778094,-0.0943 -1.452816,-0.37968 -2.060736,-0.87157 -1.020486,-0.82571 -1.621176,-2.14776 -1.968182,-4.33174 -0.132751,-0.83552 -0.388193,-2.80697 -0.388193,-2.99601 0,-0.1475 -0.07072,-0.13345 1.254242,-0.24905 0.520161,-0.0454 3.345183,-0.41728 4.295771,-0.56551 0.0931,-0.0145 0.117701,0.003 0.09859,0.0688 -0.014,0.0485 -0.08734,0.46849 -0.162959,0.93338 -0.295158,1.81453 -0.313719,2.79479 -0.08248,4.3565 0.106557,0.71967 0.134727,0.82406 0.222371,0.82406 0.124338,0 0.12439,0.004 -0.01022,-0.85129 -0.150575,-0.95722 -0.193316,-2.07609 -0.110171,-2.88417 0.07595,-0.73814 0.354952,-2.41548 0.411131,-2.47166 0.02025,-0.0203 0.433546,-0.0368 0.918428,-0.0368 1.070785,0 1.267504,0.0404 3.062895,0.62856 1.536954,0.50353 1.834484,0.58316 2.361864,0.63218 l 0.39398,0.0366 -0.0328,0.19657 c -0.23626,1.41525 -0.4865,2.48092 -0.78762,3.35422 -0.59813,1.73462 -1.31674,2.79234 -2.21816,3.26486 -1.22504,0.64216 -3.841566,1.12648 -5.197739,0.9621 z"
       id="path12685" />
    <path
       id="path17145"
       style="opacity:1;fill:#ffd5d5;stroke:none;stroke-width:0.206106;stroke-opacity:1"
       d="m 96.855346,148.65226 c -0.484881,0 -0.898557,0.0164 -0.918808,0.0367 -0.0164,0.0164 -0.05229,0.17998 -0.09612,0.40928 1.059887,2.6e-4 1.263087,0.043 3.051495,0.6289 1.536957,0.50353 1.834237,0.58298 2.361617,0.632 l 0.39429,0.0367 -0.0331,0.19638 c -0.23627,1.41524 -0.48643,2.48101 -0.78755,3.35431 -0.56432,1.63657 -1.235902,2.67012 -2.067059,3.17862 0.332605,-0.11131 0.631912,-0.23255 0.875397,-0.36019 0.901422,-0.47252 1.619832,-1.52978 2.217952,-3.2644 0.30113,-0.8733 0.55129,-1.93906 0.78755,-3.35431 l 0.0331,-0.19689 -0.39429,-0.0362 c -0.52738,-0.049 -0.82466,-0.12899 -2.361614,-0.63252 -1.795391,-0.58816 -1.992077,-0.62839 -3.062862,-0.62839 z"
       sodipodi:nodetypes="sscccccscssccccs" />
    <ellipse
       style="opacity:1;fill:#000000;stroke:#000000;stroke-width:0.458292;stroke-opacity:1"
       id="path13041"
       cx="86.327515"
       cy="128.12331"
       rx="4.5500937"
       ry="6.2467384" />
    <ellipse
       style="fill:#ffffff;stroke:#000000;stroke-width:0.196831;stroke-opacity:1"
       id="path13041-9"
       cx="85.358162"
       cy="126.36192"
       rx="1.9542121"
       ry="2.6829014" />
    <ellipse
       style="opacity:1;fill:#000000;stroke:#000000;stroke-width:0.458292;stroke-opacity:1"
       id="ellipse13145"
       cx="108.92281"
       cy="128.42403"
       rx="4.5500937"
       ry="6.2467384" />
    <ellipse
       style="fill:#ffffff;stroke:#000000;stroke-width:0.196831;stroke-opacity:1"
       id="ellipse13589"
       cx="107.06199"
       cy="126.47099"
       rx="1.9542121"
       ry="2.6829014" />
    <path
       id="path16185"
       style="opacity:1;fill:#f2f2f2;stroke:none;stroke-width:0.611055;stroke-linecap:butt;stroke-linejoin:miter;stroke-opacity:1"
       d="m 123.76264,168.90741 c -0.18429,0.66765 -0.27983,1.32784 -0.30076,1.83554 -0.0408,0.99073 0.19583,1.39966 0.92294,2.35852 0.72712,0.95885 1.6324,2.51256 2.78669,3.83043 1.15428,1.31787 2.42369,2.89098 3.38708,4.16796 0.96338,1.27698 1.62084,2.2578 2.61152,4.05738 0.99067,1.79958 2.44843,3.92669 3.21191,5.24911 0.76349,1.32242 1.14506,1.79548 1.6676,1.71359 0.52254,-0.0819 1.18567,-0.71846 1.92185,-1.93631 0.73617,-1.21785 1.54507,-3.01728 2.22673,-4.51239 0.68166,-1.49511 1.23605,-2.68554 2.29495,-3.54448 1.05891,-0.85895 2.62251,-1.386 3.94498,-1.54048 1.32247,-0.15448 2.40402,0.0633 3.17655,0.4315 0.77254,0.36816 1.23585,0.88641 1.50844,1.86345 0.17155,0.61488 0.25951,1.42277 0.28784,2.31511 0.0548,-0.46997 0.0933,-0.93087 0.11575,-1.38132 0.0773,-1.54962 -0.005,-2.98602 -0.2775,-3.96306 -0.27259,-0.97704 -0.7359,-1.49477 -1.50844,-1.86294 -0.77253,-0.36816 -1.85408,-0.58649 -3.17655,-0.43201 -1.32247,0.15448 -2.88555,0.68153 -3.94446,1.54047 -1.0589,0.85895 -1.61329,2.0499 -2.29495,3.54501 -0.68166,1.49511 -1.49056,3.29453 -2.22674,4.51238 -0.73617,1.21785 -1.39982,1.85392 -1.92236,1.9358 -0.52253,0.0819 -0.90411,-0.39065 -1.6676,-1.71307 -0.76348,-1.32242 -1.90889,-3.49467 -2.89956,-5.29425 -0.99068,-1.79958 -1.82663,-3.22662 -2.79001,-4.5036 -0.96339,-1.27699 -2.05431,-2.40387 -3.20859,-3.72174 -1.15429,-1.31787 -2.37192,-2.82644 -3.09904,-3.7853 -0.36283,-0.47847 -0.60332,-0.82006 -0.74827,-1.1653 z"
       sodipodi:nodetypes="cssssssssssssscsssssssssssssc" />
    <path
       style="opacity:1;mix-blend-mode:normal;fill:none;stroke:#000000;stroke-width:0.916582;stroke-linecap:butt;stroke-linejoin:miter;stroke-opacity:1;filter:url(#filter14802)"
       d="m 76.268573,111.11502 c -1.600411,0.045 -4.801393,0.13508 -7.110816,0.19828 -2.309423,0.0632 -3.727232,0.0996 -5.326898,0.46309 -1.599666,0.36354 -3.381017,1.05427 -4.708013,1.78139 -1.326995,0.72711 -2.199495,1.49055 -2.890264,2.34493 -0.690769,0.85439 -1.199723,1.79959 -1.526329,3.06397 -0.326605,1.26437 -0.470858,2.84776 -0.54109,6.33411 -0.07023,3.48635 -0.06645,8.87541 0.02387,12.40995 0.09032,3.53455 0.267146,5.21438 0.882803,6.36331 0.615657,1.14892 1.669926,1.76694 3.015059,2.09408 1.345132,0.32714 2.981067,0.3635 4.382548,0.0571 1.401481,-0.3064 2.568539,-0.95549 3.45927,-0.80995 0.890732,0.14554 1.505025,1.08546 2.230245,2.59157 0.725221,1.5061 1.561367,3.57829 2.92474,5.39602 1.363372,1.81773 3.253782,3.38096 5.435107,4.81696 2.181324,1.43601 4.653404,2.74476 6.28938,3.58092 1.635976,0.83616 2.435764,1.1997 2.944671,1.67237 0.508908,0.47266 0.727034,1.05433 0.908784,2.01774 0.18175,0.96342 0.327165,2.30851 0.127188,4.63523 -0.199977,2.32672 -0.745288,5.63494 -1.054296,8.77968 -0.309008,3.14474 -0.381715,6.12577 -0.472607,8.39795 -0.09089,2.27219 -0.199955,3.83543 -0.363563,5.01694 -0.163608,1.18152 -0.381731,1.98131 -0.727103,2.72655 -0.345372,0.74525 -0.817978,1.43597 -1.308776,2.19944 -0.490798,0.76346 -0.999759,1.59961 -1.199675,2.29043 -0.199916,0.69081 -0.09085,1.23613 0.109175,1.59964 0.200029,0.36352 0.490864,0.54529 2.672179,0.5634 2.181314,0.0181 6.252973,-0.1273 9.015969,-0.0727 2.762996,0.0546 4.217158,0.30903 7.380072,0.54532 3.16291,0.2363 8.03436,0.45442 10.96682,0.75961 2.93246,0.3052 3.92575,0.69737 5.7435,0.75186 1.81774,0.0545 4.45984,-0.22863 7.59709,-0.40189 3.13725,-0.17327 6.76942,-0.2367 8.6825,-0.45479 1.91308,-0.2181 2.10718,-0.59093 2.27695,-0.88188 0.16976,-0.29096 0.31518,-0.5 0.70154,-0.63635 0.38637,-0.13636 1.01347,-0.19997 2.05413,-0.37721 1.04066,-0.17724 2.49483,-0.46807 3.88083,-1.07702 1.38599,-0.60896 2.70382,-1.53598 3.90353,-2.52211 1.1997,-0.98612 2.28124,-2.03131 3.32189,-3.51275 1.04065,-1.48145 2.04038,-3.39912 2.65842,-5.18958 0.61804,-1.79046 0.85434,-3.45365 0.93161,-5.00327 0.0773,-1.54963 -0.005,-2.98561 -0.27712,-3.96265 -0.27259,-0.97704 -0.73611,-1.49509 -1.50864,-1.86326 -0.77253,-0.36816 -1.85406,-0.58628 -3.17653,-0.4318 -1.32248,0.15448 -2.8857,0.68161 -3.9446,1.54056 -1.0589,0.85894 -1.6133,2.04954 -2.29497,3.54465 -0.68166,1.49511 -1.49054,3.29465 -2.22671,4.5125 -0.73618,1.21785 -1.39964,1.85405 -1.92217,1.93593 -0.52254,0.0819 -0.90426,-0.39072 -1.66774,-1.71314 -0.76349,-1.32242 -1.90864,-3.49457 -2.89931,-5.29415 -0.99068,-1.79958 -1.82683,-3.22649 -2.79022,-4.50347 -0.96338,-1.27699 -2.05401,-2.40397 -3.20829,-3.72184 -1.15429,-1.31787 -2.37215,-2.82656 -3.09927,-3.78542 -0.72711,-0.95885 -0.96342,-1.36784 -0.92258,-2.35856 0.0408,-0.99072 0.35893,-2.56303 1.08608,-3.63558 0.72715,-1.07255 1.86323,-1.64513 3.0584,-2.21318 1.19518,-0.56804 2.4494,-1.13154 3.83996,-2.12675 1.39055,-0.99522 2.91743,-2.42212 4.08987,-3.68998 1.17244,-1.26787 1.99041,-2.37667 2.76295,-3.65818 0.77254,-1.2815 1.49962,-2.73566 2.04495,-3.9899 0.54532,-1.25424 0.90886,-2.3085 1.18155,-2.91296 0.27269,-0.60446 0.45446,-0.75896 0.7181,-0.60889 0.26364,0.15007 0.609,0.60449 1.18162,1.07707 0.57263,0.47259 1.37241,0.96336 2.43579,1.21779 1.06337,0.25442 2.3903,0.27259 3.4173,0.16804 1.027,-0.10454 1.75409,-0.33176 2.46073,-0.57034 0.70665,-0.23858 1.39284,-0.48851 2.11309,-0.92931 0.72024,-0.4408 1.47459,-1.07245 2.08807,-1.71546 0.61347,-0.64301 1.08608,-1.29738 1.58369,-2.03584 0.49761,-0.73847 1.0202,-1.56098 1.4201,-2.45392 0.3999,-0.89294 0.6771,-1.85633 0.9384,-2.90608 0.26131,-1.04975 0.5067,-2.18581 0.63394,-3.14239 0.12724,-0.95657 0.13631,-1.73364 0.16357,-3.4378 0.0272,-1.70416 0.0727,-4.33529 -0.005,-6.17121 -0.0772,-1.83591 -0.27718,-2.87654 -0.42488,-3.66727 -0.14769,-0.79073 -0.24312,-1.33149 -0.49759,-2.15629 -0.25447,-0.8248 -0.668,-1.93362 -1.03607,-2.78796 -0.36808,-0.85434 -0.69073,-1.45419 -1.22921,-2.07452 -0.53847,-0.62033 -1.29282,-1.26107 -2.27213,-1.76554 -0.97931,-0.50447 -2.18354,-0.87256 -3.30602,-1.06345 -1.12248,-0.19089 -2.16312,-0.20452 -3.49918,-0.19998 -1.33605,0.005 -2.96744,0.0273 -4.76704,0.18179 -1.7996,0.15451 -3.76727,0.4408 -5.12379,0.73618 -1.35652,0.29538 -2.10178,0.59985 -2.92656,0.8407 -0.82479,0.24086 -1.72912,0.41809 -2.3494,0.35455 -0.62028,-0.0635 -0.95656,-0.368 -1.64769,-0.82331 -0.69113,-0.45531 -1.73677,-1.06121 -3.06163,-1.83686 -1.32486,-0.77564 -2.92758,-1.72024 -4.55403,-2.54235 -1.62645,-0.8221 -3.2756,-1.52109 -4.87311,-2.12007 -1.59752,-0.59897 -3.14397,-1.09809 -5.86646,-1.46824 -2.7225,-0.37015 -6.62081,-0.61124 -9.66255,-0.64183 -3.04174,-0.0306 -5.226743,0.14936 -7.39935,0.45163 -2.172606,0.30227 -4.332509,0.72684 -6.377876,1.42531 -2.045368,0.69846 -3.976075,1.67082 -5.450419,2.51147 -1.474345,0.84065 -2.492262,1.54956 -3.382958,2.14487 -0.890697,0.59531 -1.654132,1.077 -2.175823,1.35463 -0.52169,0.27762 -0.80168,0.35116 -0.941733,0.38795 -0.140054,0.0368 -0.139997,0.0368 -1.740408,0.0818 z"
       id="path13922"
       sodipodi:nodetypes="cccccccccccccccccccccccccccccccccccccccccccccccccccccccccccccccccccccccccccccccccccccccccccccccccc"
       inkscape:original-d="m 77.868984,111.07 c -3.200818,0.0902 -6.401799,0.18026 -9.60294,0.27015 -1.417706,0.0365 -2.835514,0.0729 -4.253515,0.10906 -1.78126,0.69092 -3.562611,1.38165 -5.34416,2.07223 -0.872371,0.76362 -1.744869,1.52706 -2.617546,2.29035 -0.508817,0.94541 -1.017774,1.89061 -1.526903,2.83568 -0.144097,1.5836 -0.288351,3.16699 -0.432768,4.75024 0.0039,5.38943 0.0077,10.77849 0.01134,16.16749 0.176998,1.68007 0.353826,3.35991 0.530498,5.03962 1.054472,0.6182 2.108741,1.23622 3.162869,1.85409 1.636162,0.0365 3.272096,0.0729 4.907902,0.10907 1.167265,-0.64896 2.334323,-1.29805 3.50124,-1.94731 0.614481,0.94012 1.228775,1.88004 1.842918,2.81982 0.83634,2.07243 1.672484,4.14462 2.508484,6.21668 1.89065,1.56345 3.781063,3.12667 5.671352,4.68977 2.47234,1.30896 4.944419,2.61771 7.416385,3.92632 0.799984,0.36372 1.599773,0.72726 2.399417,1.09065 0.218296,0.58184 0.436421,1.16351 0.654388,1.74503 0.145583,1.34532 0.291,2.69041 0.436258,4.03538 -0.545172,3.30852 -1.090484,6.61674 -1.635967,9.92487 -0.07255,2.98132 -0.145258,5.96235 -0.218128,8.94329 -0.108906,1.56344 -0.217969,3.12668 -0.327195,4.68977 -0.217972,0.79998 -0.436095,1.59977 -0.654385,2.39942 -0.472462,0.69091 -0.945065,1.38164 -1.41784,2.07222 -0.508815,0.83634 -1.017773,1.67249 -1.526903,2.50848 0.109229,0.5455 0.218292,1.09081 0.327194,1.63598 0.291005,0.18193 0.581839,0.3637 0.872516,0.54531 4.071984,-0.14526 8.143643,-0.29067 12.215221,-0.43625 1.454385,0.25465 2.908547,0.50913 4.362579,0.76345 4.871805,0.21829 9.743255,0.43642 14.614645,0.65438 0.9935,0.39236 1.9868,0.78452 2.97996,1.17655 2.64238,-0.28296 5.28448,-0.56607 7.92648,-0.84935 3.63248,-0.0633 7.26465,-0.12669 10.89674,-0.19028 0.19427,-0.37267 0.38836,-0.7455 0.58231,-1.1185 0.14558,-0.20888 0.291,-0.41792 0.43625,-0.62712 0.6273,-0.0635 1.25441,-0.12708 1.88137,-0.19086 1.45438,-0.29068 2.90855,-0.58152 4.36257,-0.87251 1.31806,-0.92691 2.63589,-1.85394 3.95359,-2.78115 1.08174,-1.04506 2.16328,-2.09024 3.24467,-3.1356 0.99994,-1.9176 1.99968,-3.83527 2.99927,-5.75315 0.23648,-1.66311 0.47278,-3.3263 0.70892,-4.98971 -0.0816,-1.43588 -0.16343,-2.87186 -0.24539,-4.30804 -0.46337,-0.5179 -0.92689,-1.03595 -1.39057,-1.55417 -1.08142,-0.21797 -2.16295,-0.43609 -3.24467,-0.65439 -1.56313,0.52732 -3.12635,1.05446 -4.68977,1.58144 -0.55427,1.1908 -1.10867,2.3814 -1.66323,3.57186 -0.80875,1.79976 -1.61764,3.59929 -2.42669,5.39869 -0.66333,0.63638 -1.32679,1.27258 -1.99043,1.90863 -0.38157,-0.47246 -0.76329,-0.94506 -1.14518,-1.41784 -1.14503,-2.17208 -2.2902,-4.34423 -3.43553,-6.5166 -0.83602,-1.42679 -1.67217,-2.8537 -2.50849,-4.28078 -1.0905,-1.12686 -2.18113,-2.25384 -3.27193,-3.381 -1.21775,-1.50859 -2.43561,-3.01729 -3.65367,-4.52618 -0.23614,-0.40883 -0.47244,-0.81782 -0.70891,-1.22697 0.31827,-1.57222 0.63637,-3.14453 0.95431,-4.71704 1.13627,-0.57244 2.27234,-1.14502 3.40827,-1.71776 1.25442,-0.56335 2.50864,-1.12684 3.76272,-1.69051 1.5271,-1.42679 3.05397,-2.85369 4.58072,-4.28078 0.81816,-1.10868 1.63613,-2.21748 2.45395,-3.32646 0.72728,-1.45406 1.45435,-2.90823 2.18129,-4.36258 0.36371,-1.05415 0.72726,-2.10841 1.09064,-3.16287 0.18195,-0.15435 0.36372,-0.30885 0.54533,-0.46352 0.34554,0.45461 0.6909,0.90903 1.03611,1.3633 0.79999,0.49096 1.59977,0.98174 2.39942,1.47237 1.32713,0.0183 2.65406,0.0365 3.98085,0.0545 0.72727,-0.22705 1.45436,-0.45427 2.18129,-0.68165 0.68637,-0.24978 1.37256,-0.49972 2.05859,-0.74982 0.75454,-0.63151 1.50889,-1.26316 2.26309,-1.89499 0.47279,-0.65424 0.94539,-1.30861 1.41784,-1.96316 0.52277,-0.82239 1.04536,-1.6449 1.5678,-2.46758 0.27737,-0.96326 0.55457,-1.92665 0.83161,-2.89021 0.24557,-1.13596 0.49096,-2.27202 0.73619,-3.40827 0.009,-0.77694 0.0183,-1.55401 0.0272,-2.33126 0.0456,-2.63107 0.0911,-5.2622 0.13634,-7.89354 -0.1998,-1.04051 -0.39974,-2.08115 -0.59986,-3.12197 -0.0953,-0.54063 -0.1907,-1.08139 -0.2863,-1.62233 -0.41337,-1.10868 -0.82691,-2.21749 -1.2406,-3.32647 -0.3225,-0.5997 -0.64514,-1.19955 -0.96795,-1.79956 -0.75421,-0.64061 -1.50856,-1.28135 -2.26308,-1.92226 -1.20412,-0.36794 -2.40835,-0.73603 -3.61277,-1.10428 -1.04051,-0.0135 -2.08115,-0.0271 -3.12197,-0.0409 -1.63129,0.0229 -3.26268,0.0456 -4.89427,0.0682 -1.96758,0.28646 -3.93525,0.57275 -5.90311,0.85888 -0.74513,0.30464 -1.49039,0.60911 -2.23582,0.91342 -0.90418,0.17739 -1.80851,0.35462 -2.71299,0.53169 -0.33613,-0.30432 -0.6724,-0.60879 -1.00885,-0.91342 -1.04584,-0.60594 -2.0915,-1.21181 -3.13794,-1.81828 -1.60328,-0.94482 -3.206,-1.88942 -4.80975,-2.83474 -1.64915,-0.69884 -3.2983,-1.39784 -4.9475,-2.097 -1.54583,-0.49875 -3.09228,-0.99787 -4.63893,-1.49724 -3.8983,-0.24085 -7.79661,-0.48194 -11.69516,-0.72329 -2.18491,0.18011 -4.369909,0.36005 -6.555216,0.53984 -2.159884,0.42476 -4.319787,0.84933 -6.479922,1.27376 -1.930541,0.97251 -3.861247,1.94487 -5.792112,2.91707 -1.017794,0.70909 -2.035709,1.418 -3.053807,2.12676 -0.763304,0.48187 -1.52674,0.96356 -2.290353,1.4451 -0.279838,0.0737 -0.559827,0.14725 -0.839983,0.22064 z"
       inkscape:path-effect="#path-effect13926" />
    <path
       style="opacity:1;fill:none;stroke:#000000;stroke-width:0.206106;stroke-opacity:1"
       d="m 94.437779,157.72706 c -0.778094,-0.0943 -1.452816,-0.37968 -2.060736,-0.87157 -1.020486,-0.82571 -1.621176,-2.14776 -1.968182,-4.33174 -0.132751,-0.83552 -0.388193,-2.80697 -0.388193,-2.99601 0,-0.1475 -0.07072,-0.13345 1.254242,-0.24905 0.520161,-0.0454 3.345183,-0.41728 4.295771,-0.56551 0.0931,-0.0145 0.117701,0.003 0.09859,0.0688 -0.014,0.0485 -0.08734,0.46849 -0.162959,0.93338 -0.295158,1.81453 -0.313719,2.79479 -0.08248,4.3565 0.106557,0.71967 0.134727,0.82406 0.222371,0.82406 0.124338,0 0.12439,0.004 -0.01022,-0.85129 -0.150575,-0.95722 -0.193316,-2.07609 -0.110171,-2.88417 0.07595,-0.73814 0.354952,-2.41548 0.411131,-2.47166 0.02025,-0.0203 0.433546,-0.0368 0.918428,-0.0368 1.070785,0 1.267504,0.0404 3.062895,0.62856 1.536954,0.50353 1.834484,0.58316 2.361864,0.63218 l 0.39398,0.0366 -0.0328,0.19657 c -0.23626,1.41525 -0.4865,2.48092 -0.78762,3.35422 -0.59813,1.73462 -1.31674,2.79234 -2.21816,3.26486 -1.22504,0.64216 -3.841566,1.12648 -5.197739,0.9621 z"
       id="path17436" />
    <ellipse
       style="opacity:1;mix-blend-mode:normal;fill:#de8787;stroke:none;stroke-width:0.670453;stroke-opacity:1;filter:url(#filter17636)"
       id="path17532"
       cx="116.85999"
       cy="142.36487"
       rx="9.6463346"
       ry="3.7231467" />
    <ellipse
       style="opacity:1;fill:#de8787;stroke:none;stroke-width:0.670453;stroke-opacity:1;filter:url(#filter17636)"
       id="ellipse17640"
       cx="78.406013"
       cy="141.9646"
       rx="9.6463346"
       ry="3.7231467" />
    <path
       style="opacity:1;mix-blend-mode:normal;fill:none;stroke:#000000;stroke-width:0.916582;stroke-linecap:butt;stroke-linejoin:miter;stroke-opacity:1;filter:url(#filter18327)"
       d="m 76.268573,111.11502 c -1.600411,0.045 -4.801393,0.13508 -7.110816,0.19828 -2.309423,0.0632 -3.727232,0.0996 -5.326898,0.46309 -1.599666,0.36354 -3.381017,1.05427 -4.708013,1.78139 -1.326995,0.72711 -2.199495,1.49055 -2.890264,2.34493 -0.690769,0.85439 -1.199723,1.79959 -1.526329,3.06397 -0.326605,1.26437 -0.470858,2.84776 -0.54109,6.33411 -0.07023,3.48635 -0.06645,8.87541 0.02387,12.40995 0.09032,3.53455 0.267146,5.21438 0.882803,6.36331 0.615657,1.14892 1.669926,1.76694 3.015059,2.09408 1.345132,0.32714 2.981067,0.3635 4.382548,0.0571 1.401481,-0.3064 2.568539,-0.95549 3.45927,-0.80995 0.890732,0.14554 1.505025,1.08546 2.230245,2.59157 0.725221,1.5061 1.561367,3.57829 2.92474,5.39602 1.363372,1.81773 3.253782,3.38096 5.435107,4.81696 2.181324,1.43601 4.653404,2.74476 6.28938,3.58092 1.635976,0.83616 2.435764,1.1997 2.944671,1.67237 0.508908,0.47266 0.727034,1.05433 0.908784,2.01774 0.18175,0.96342 0.327165,2.30851 0.127188,4.63523 -0.199977,2.32672 -0.745288,5.63494 -1.054296,8.77968 -0.309008,3.14474 -0.381715,6.12577 -0.472607,8.39795 -0.09089,2.27219 -0.199955,3.83543 -0.363563,5.01694 -0.163608,1.18152 -0.381731,1.98131 -0.727103,2.72655 -0.345372,0.74525 -0.817978,1.43597 -1.308776,2.19944 -0.490798,0.76346 -0.999759,1.59961 -1.199675,2.29043 -0.199916,0.69081 -0.09085,1.23613 0.109175,1.59964 0.200029,0.36352 0.490864,0.54529 2.672179,0.5634 2.181314,0.0181 6.252973,-0.1273 9.015969,-0.0727 2.762996,0.0546 4.217158,0.30903 7.380072,0.54532 3.16291,0.2363 8.03436,0.45442 10.96682,0.75961 2.93246,0.3052 3.92575,0.69737 5.7435,0.75186 1.81774,0.0545 4.45984,-0.22863 7.59709,-0.40189 3.13725,-0.17327 6.76942,-0.2367 8.6825,-0.45479 1.91308,-0.2181 2.10718,-0.59093 2.27695,-0.88188 0.16976,-0.29096 0.31518,-0.5 0.70154,-0.63635 0.38637,-0.13636 1.01347,-0.19997 2.05413,-0.37721 1.04066,-0.17724 2.49483,-0.46807 3.88083,-1.07702 1.38599,-0.60896 2.70382,-1.53598 3.90353,-2.52211 1.1997,-0.98612 2.28124,-2.03131 3.32189,-3.51275 1.04065,-1.48145 2.04038,-3.39912 2.65842,-5.18958 0.61804,-1.79046 0.85434,-3.45365 0.93161,-5.00327 0.0773,-1.54963 -0.005,-2.98561 -0.27712,-3.96265 -0.27259,-0.97704 -0.73611,-1.49509 -1.50864,-1.86326 -0.77253,-0.36816 -1.85406,-0.58628 -3.17653,-0.4318 -1.32248,0.15448 -2.8857,0.68161 -3.9446,1.54056 -1.0589,0.85894 -1.6133,2.04954 -2.29497,3.54465 -0.68166,1.49511 -1.49054,3.29465 -2.22671,4.5125 -0.73618,1.21785 -1.39964,1.85405 -1.92217,1.93593 -0.52254,0.0819 -0.90426,-0.39072 -1.66774,-1.71314 -0.76349,-1.32242 -1.90864,-3.49457 -2.89931,-5.29415 -0.99068,-1.79958 -1.82683,-3.22649 -2.79022,-4.50347 -0.96338,-1.27699 -2.05401,-2.40397 -3.20829,-3.72184 -1.15429,-1.31787 -2.37215,-2.82656 -3.09927,-3.78542 -0.72711,-0.95885 -0.96342,-1.36784 -0.92258,-2.35856 0.0408,-0.99072 0.35893,-2.56303 1.08608,-3.63558 0.72715,-1.07255 1.86323,-1.64513 3.0584,-2.21318 1.19518,-0.56804 2.4494,-1.13154 3.83996,-2.12675 1.39055,-0.99522 2.91743,-2.42212 4.08987,-3.68998 1.17244,-1.26787 1.99041,-2.37667 2.76295,-3.65818 0.77254,-1.2815 1.49962,-2.73566 2.04495,-3.9899 0.54532,-1.25424 0.90886,-2.3085 1.18155,-2.91296 0.27269,-0.60446 0.45446,-0.75896 0.7181,-0.60889 0.26364,0.15007 0.609,0.60449 1.18162,1.07707 0.57263,0.47259 1.37241,0.96336 2.43579,1.21779 1.06337,0.25442 2.3903,0.27259 3.4173,0.16804 1.027,-0.10454 1.75409,-0.33176 2.46073,-0.57034 0.70665,-0.23858 1.39284,-0.48851 2.11309,-0.92931 0.72024,-0.4408 1.47459,-1.07245 2.08807,-1.71546 0.61347,-0.64301 1.08608,-1.29738 1.58369,-2.03584 0.49761,-0.73847 1.0202,-1.56098 1.4201,-2.45392 0.3999,-0.89294 0.6771,-1.85633 0.9384,-2.90608 0.26131,-1.04975 0.5067,-2.18581 0.63394,-3.14239 0.12724,-0.95657 0.13631,-1.73364 0.16357,-3.4378 0.0272,-1.70416 0.0727,-4.33529 -0.005,-6.17121 -0.0772,-1.83591 -0.27718,-2.87654 -0.42488,-3.66727 -0.14769,-0.79073 -0.24312,-1.33149 -0.49759,-2.15629 -0.25447,-0.8248 -0.668,-1.93362 -1.03607,-2.78796 -0.36808,-0.85434 -0.69073,-1.45419 -1.22921,-2.07452 -0.53847,-0.62033 -1.29282,-1.26107 -2.27213,-1.76554 -0.97931,-0.50447 -2.18354,-0.87256 -3.30602,-1.06345 -1.12248,-0.19089 -2.16312,-0.20452 -3.49918,-0.19998 -1.33605,0.005 -2.96744,0.0273 -4.76704,0.18179 -1.7996,0.15451 -3.76727,0.4408 -5.12379,0.73618 -1.35652,0.29538 -2.10178,0.59985 -2.92656,0.8407 -0.82479,0.24086 -1.72912,0.41809 -2.3494,0.35455 -0.62028,-0.0635 -0.95656,-0.368 -1.64769,-0.82331 -0.69113,-0.45531 -1.73677,-1.06121 -3.06163,-1.83686 -1.32486,-0.77564 -2.92758,-1.72024 -4.5961,-2.52131 -1.66852,-0.80108 -3.40182,-1.458 -5.23068,-2.05187 -1.82887,-0.59387 -3.75398,-1.12486 -6.43441,-1.51603 -2.68042,-0.39118 -6.11596,-0.64248 -8.92633,-0.67817 -2.81037,-0.0357 -4.995373,0.14425 -7.16798,0.44652 -2.172606,0.30227 -4.332509,0.72684 -6.377876,1.42531 -2.045368,0.69846 -3.976075,1.67082 -5.450419,2.51147 -1.474345,0.84065 -2.492262,1.54956 -3.382958,2.14487 -0.890697,0.59531 -1.654132,1.077 -2.175823,1.35463 -0.52169,0.27762 -0.80168,0.35116 -0.941733,0.38795 -0.140054,0.0368 -0.139997,0.0368 -1.740408,0.0818 z"
       id="path18319"
       sodipodi:nodetypes="cccccccccccccccccccccccccccccccccccccccccccccccccccccccccccccccccccccccccccccccccccccccccccccccccc"
       inkscape:original-d="m 77.868984,111.07 c -3.200818,0.0902 -6.401799,0.18026 -9.60294,0.27015 -1.417706,0.0365 -2.835514,0.0729 -4.253515,0.10906 -1.78126,0.69092 -3.562611,1.38165 -5.34416,2.07223 -0.872371,0.76362 -1.744869,1.52706 -2.617546,2.29035 -0.508817,0.94541 -1.017774,1.89061 -1.526903,2.83568 -0.144097,1.5836 -0.288351,3.16699 -0.432768,4.75024 0.0039,5.38943 0.0077,10.77849 0.01134,16.16749 0.176998,1.68007 0.353826,3.35991 0.530498,5.03962 1.054472,0.6182 2.108741,1.23622 3.162869,1.85409 1.636162,0.0365 3.272096,0.0729 4.907902,0.10907 1.167265,-0.64896 2.334323,-1.29805 3.50124,-1.94731 0.614481,0.94012 1.228775,1.88004 1.842918,2.81982 0.83634,2.07243 1.672484,4.14462 2.508484,6.21668 1.89065,1.56345 3.781063,3.12667 5.671352,4.68977 2.47234,1.30896 4.944419,2.61771 7.416385,3.92632 0.799984,0.36372 1.599773,0.72726 2.399417,1.09065 0.218296,0.58184 0.436421,1.16351 0.654388,1.74503 0.145583,1.34532 0.291,2.69041 0.436258,4.03538 -0.545172,3.30852 -1.090484,6.61674 -1.635967,9.92487 -0.07255,2.98132 -0.145258,5.96235 -0.218128,8.94329 -0.108906,1.56344 -0.217969,3.12668 -0.327195,4.68977 -0.217972,0.79998 -0.436095,1.59977 -0.654385,2.39942 -0.472462,0.69091 -0.945065,1.38164 -1.41784,2.07222 -0.508815,0.83634 -1.017773,1.67249 -1.526903,2.50848 0.109229,0.5455 0.218292,1.09081 0.327194,1.63598 0.291005,0.18193 0.581839,0.3637 0.872516,0.54531 4.071984,-0.14526 8.143643,-0.29067 12.215221,-0.43625 1.454385,0.25465 2.908547,0.50913 4.362579,0.76345 4.871805,0.21829 9.743255,0.43642 14.614645,0.65438 0.9935,0.39236 1.9868,0.78452 2.97996,1.17655 2.64238,-0.28296 5.28448,-0.56607 7.92648,-0.84935 3.63248,-0.0633 7.26465,-0.12669 10.89674,-0.19028 0.19427,-0.37267 0.38836,-0.7455 0.58231,-1.1185 0.14558,-0.20888 0.291,-0.41792 0.43625,-0.62712 0.6273,-0.0635 1.25441,-0.12708 1.88137,-0.19086 1.45438,-0.29068 2.90855,-0.58152 4.36257,-0.87251 1.31806,-0.92691 2.63589,-1.85394 3.95359,-2.78115 1.08174,-1.04506 2.16328,-2.09024 3.24467,-3.1356 0.99994,-1.9176 1.99968,-3.83527 2.99927,-5.75315 0.23648,-1.66311 0.47278,-3.3263 0.70892,-4.98971 -0.0816,-1.43588 -0.16343,-2.87186 -0.24539,-4.30804 -0.46337,-0.5179 -0.92689,-1.03595 -1.39057,-1.55417 -1.08142,-0.21797 -2.16295,-0.43609 -3.24467,-0.65439 -1.56313,0.52732 -3.12635,1.05446 -4.68977,1.58144 -0.55427,1.1908 -1.10867,2.3814 -1.66323,3.57186 -0.80875,1.79976 -1.61764,3.59929 -2.42669,5.39869 -0.66333,0.63638 -1.32679,1.27258 -1.99043,1.90863 -0.38157,-0.47246 -0.76329,-0.94506 -1.14518,-1.41784 -1.14503,-2.17208 -2.2902,-4.34423 -3.43553,-6.5166 -0.83602,-1.42679 -1.67217,-2.8537 -2.50849,-4.28078 -1.0905,-1.12686 -2.18113,-2.25384 -3.27193,-3.381 -1.21775,-1.50859 -2.43561,-3.01729 -3.65367,-4.52618 -0.23614,-0.40883 -0.47244,-0.81782 -0.70891,-1.22697 0.31827,-1.57222 0.63637,-3.14453 0.95431,-4.71704 1.13627,-0.57244 2.27234,-1.14502 3.40827,-1.71776 1.25442,-0.56335 2.50864,-1.12684 3.76272,-1.69051 1.5271,-1.42679 3.05397,-2.85369 4.58072,-4.28078 0.81816,-1.10868 1.63613,-2.21748 2.45395,-3.32646 0.72728,-1.45406 1.45435,-2.90823 2.18129,-4.36258 0.36371,-1.05415 0.72726,-2.10841 1.09064,-3.16287 0.18195,-0.15435 0.36372,-0.30885 0.54533,-0.46352 0.34554,0.45461 0.6909,0.90903 1.03611,1.3633 0.79999,0.49096 1.59977,0.98174 2.39942,1.47237 1.32713,0.0183 2.65406,0.0365 3.98085,0.0545 0.72727,-0.22705 1.45436,-0.45427 2.18129,-0.68165 0.68637,-0.24978 1.37256,-0.49972 2.05859,-0.74982 0.75454,-0.63151 1.50889,-1.26316 2.26309,-1.89499 0.47279,-0.65424 0.94539,-1.30861 1.41784,-1.96316 0.52277,-0.82239 1.04536,-1.6449 1.5678,-2.46758 0.27737,-0.96326 0.55457,-1.92665 0.83161,-2.89021 0.24557,-1.13596 0.49096,-2.27202 0.73619,-3.40827 0.009,-0.77694 0.0183,-1.55401 0.0272,-2.33126 0.0456,-2.63107 0.0911,-5.2622 0.13634,-7.89354 -0.1998,-1.04051 -0.39974,-2.08115 -0.59986,-3.12197 -0.0953,-0.54063 -0.1907,-1.08139 -0.2863,-1.62233 -0.41337,-1.10868 -0.82691,-2.21749 -1.2406,-3.32647 -0.3225,-0.5997 -0.64514,-1.19955 -0.96795,-1.79956 -0.75421,-0.64061 -1.50856,-1.28135 -2.26308,-1.92226 -1.20412,-0.36794 -2.40835,-0.73603 -3.61277,-1.10428 -1.04051,-0.0135 -2.08115,-0.0271 -3.12197,-0.0409 -1.63129,0.0229 -3.26268,0.0456 -4.89427,0.0682 -1.96758,0.28646 -3.93525,0.57275 -5.90311,0.85888 -0.74513,0.30464 -1.49039,0.60911 -2.23582,0.91342 -0.90418,0.17739 -1.80851,0.35462 -2.71299,0.53169 -0.33613,-0.30432 -0.6724,-0.60879 -1.00885,-0.91342 -1.04584,-0.60594 -2.0915,-1.21181 -3.13794,-1.81828 -1.60328,-0.94482 -3.206,-1.88942 -4.80975,-2.83474 -1.7333,-0.65676 -3.46659,-1.31369 -5.19992,-1.97079 -1.9244,-0.5306 -3.84951,-1.06159 -5.7748,-1.59282 -3.43553,-0.25106 -6.87107,-0.50236 -10.30687,-0.75392 -2.18491,0.18011 -4.369909,0.36005 -6.555216,0.53984 -2.159884,0.42476 -4.319787,0.84933 -6.479922,1.27376 -1.930541,0.97251 -3.861247,1.94487 -5.792112,2.91707 -1.017794,0.70909 -2.035709,1.418 -3.053807,2.12676 -0.763304,0.48187 -1.52674,0.96356 -2.290353,1.4451 -0.279838,0.0737 -0.559827,0.14725 -0.839983,0.22064 z"
       inkscape:path-effect="#path-effect18323" />
    <path
       style="fill:#37abc8;stroke:#000000;stroke-width:0.305527;stroke-linecap:butt;stroke-linejoin:miter;stroke-opacity:1"
       d="m 86.880021,169.82631 c 0.844134,0.57317 2.531495,1.71888 4.86528,2.75457 2.333785,1.03569 5.31348,1.96111 8.154358,2.38524 2.840881,0.42412 5.542801,0.34701 9.393771,-0.33425 3.85098,-0.68125 8.85081,-1.96656 11.66637,-3.07193 2.81555,-1.10537 3.44684,-2.03079 3.66517,-2.76746 0.21833,-0.73667 0.0237,-1.28457 -0.006,-2.01741 -0.0297,-0.73283 0.1059,-1.64978 -0.62999,-1.87717 -0.73589,-0.22738 -2.34335,0.23533 -5.0789,0.68521 -2.73554,0.44988 -6.59904,0.88689 -10.32375,0.96402 -3.72471,0.0771 -7.31045,-0.20563 -10.441737,-0.61694 -3.131287,-0.4113 -5.807963,-0.95113 -7.850834,-1.29883 -2.04287,-0.3477 -3.451618,-0.50321 -4.015372,-0.0911 -0.563753,0.41208 -0.28221,1.3915 -0.18178,2.27161 0.10043,0.8801 0.01986,1.66069 -0.02043,2.051 -0.04029,0.39031 -0.0403,0.39031 0.803839,0.96348 z"
       id="path3722"
       inkscape:path-effect="#path-effect3724"
       inkscape:original-d="m 86.035886,169.25314 c 1.688232,1.14639 3.375592,2.29211 5.063195,3.43791 2.979973,0.92562 5.959668,1.85104 8.939269,2.77632 2.70219,-0.077 5.40411,-0.15408 8.10593,-0.23136 5.00018,-1.2852 10.00001,-2.57051 14.99978,-3.85601 0.63148,-0.9253 1.26277,-1.85072 1.89391,-2.77633 -0.19451,-0.54792 -0.38919,-1.09581 -0.58424,-1.64428 0.13588,-0.91711 0.27144,-1.83406 0.40677,-2.75157 -1.60732,0.46302 -3.21478,0.92573 -4.82244,1.38816 -3.8635,0.43719 -7.727,0.87419 -11.59075,1.31105 -3.5857,-0.28262 -7.17144,-0.56539 -10.757405,-0.84832 -2.676623,-0.5397 -5.353299,-1.07953 -8.030186,-1.61953 -1.408856,-0.15529 -2.817604,-0.3108 -4.226712,-0.46659 0.281801,0.97966 0.563344,1.95908 0.844645,2.93831 -0.08033,0.78106 -0.160895,1.56165 -0.241756,2.34224 z"
       sodipodi:nodetypes="cccccccccccccccc" />
    <path
       id="path18347"
       style="fill:#afdde9;stroke:none;stroke-width:0.305528;stroke-linecap:butt;stroke-linejoin:miter;stroke-opacity:1"
       d="m 87.327994,164.38843 c -0.552458,-0.006 -0.960519,0.0662 -1.207161,0.2465 -0.453157,0.33123 -0.360344,1.02955 -0.254249,1.74769 0.599152,0.0538 1.31023,0.16124 2.123903,0.29973 2.042869,0.3477 4.719394,0.88732 7.850682,1.29862 3.131288,0.41131 6.717031,0.69415 10.441741,0.61702 3.72471,-0.0771 7.58837,-0.51389 10.32392,-0.96377 2.73554,-0.44987 4.34286,-0.91261 5.07875,-0.68522 0.7359,0.22738 0.60028,1.14405 0.62994,1.87688 0.0297,0.73284 0.22453,1.28078 0.006,2.01745 -0.015,0.0505 -0.0328,0.10226 -0.0522,0.15451 1.58537,-0.81976 2.02423,-1.52484 2.1978,-2.11046 0.21833,-0.73667 0.0235,-1.28461 -0.006,-2.01745 -0.0297,-0.73284 0.10596,-1.65002 -0.62993,-1.8774 -0.73589,-0.22739 -2.34321,0.23535 -5.07876,0.68523 -2.73554,0.44987 -6.5992,0.88714 -10.32392,0.96428 -3.72471,0.0771 -7.31045,-0.20572 -10.441734,-0.61702 -3.131288,-0.4113 -5.807813,-0.95144 -7.850685,-1.29914 -1.149114,-0.19559 -2.097794,-0.3303 -2.808097,-0.33745 z" />
    <path
       style="fill:none;stroke:#000000;stroke-width:0.75;stroke-linecap:butt;stroke-linejoin:miter;stroke-opacity:1"
       d="m 86.880021,169.82631 c 0.844134,0.57317 2.531495,1.71888 4.86528,2.75457 2.333785,1.03569 5.31348,1.96111 8.154358,2.38524 2.840881,0.42412 5.542801,0.34701 9.393771,-0.33425 3.85098,-0.68125 8.85081,-1.96656 11.66637,-3.07193 2.81555,-1.10537 3.44684,-2.03079 3.66517,-2.76746 0.21833,-0.73667 0.0237,-1.28457 -0.006,-2.01741 -0.0297,-0.73283 0.1059,-1.64978 -0.62999,-1.87717 -0.73589,-0.22738 -2.34335,0.23533 -5.0789,0.68521 -2.73554,0.44988 -6.59904,0.88689 -10.32375,0.96402 -3.72471,0.0771 -7.31045,-0.20563 -10.441737,-0.61694 -3.131287,-0.4113 -5.807963,-0.95113 -7.850834,-1.29883 -2.04287,-0.3477 -3.451618,-0.50321 -4.015372,-0.0911 -0.563753,0.41208 -0.28221,1.3915 -0.18178,2.27161 0.10043,0.8801 0.01986,1.66069 -0.02043,2.051 -0.04029,0.39031 -0.0403,0.39031 0.803839,0.96348 z"
       id="path18396"
       inkscape:path-effect="#path-effect18400"
       inkscape:original-d="m 86.035886,169.25314 c 1.688232,1.14639 3.375592,2.29211 5.063195,3.43791 2.979973,0.92562 5.959668,1.85104 8.939269,2.77632 2.70219,-0.077 5.40411,-0.15408 8.10593,-0.23136 5.00018,-1.2852 10.00001,-2.57051 14.99978,-3.85601 0.63148,-0.9253 1.26277,-1.85072 1.89391,-2.77633 -0.19451,-0.54792 -0.38919,-1.09581 -0.58424,-1.64428 0.13588,-0.91711 0.27144,-1.83406 0.40677,-2.75157 -1.60732,0.46302 -3.21478,0.92573 -4.82244,1.38816 -3.8635,0.43719 -7.727,0.87419 -11.59075,1.31105 -3.5857,-0.28262 -7.17144,-0.56539 -10.757405,-0.84832 -2.676623,-0.5397 -5.353299,-1.07953 -8.030186,-1.61953 -1.408856,-0.15529 -2.817604,-0.3108 -4.226712,-0.46659 0.281801,0.97966 0.563344,1.95908 0.844645,2.93831 -0.08033,0.78106 -0.160895,1.56165 -0.241756,2.34224 z"
       sodipodi:nodetypes="cccccccccccccccc" />
  </g>
</svg>
